<mxfile host="app.diagrams.net" modified="2021-04-04T00:15:21.868Z" agent="5.0 (Windows NT 10.0; Win64; x64) AppleWebKit/537.36 (KHTML, like Gecko) Chrome/89.0.4389.105 Safari/537.36" etag="MBnh4HkMbqTGgP4Wehan" version="13.9.1" type="github">
  <diagram id="e79B_LpHymD-6R5W2Md7" name="Page-1">
    <mxGraphModel dx="868" dy="454" grid="1" gridSize="10" guides="1" tooltips="1" connect="1" arrows="1" fold="1" page="1" pageScale="1" pageWidth="827" pageHeight="1169" math="0" shadow="0">
      <root>
        <mxCell id="0" />
        <mxCell id="1" parent="0" />
        <mxCell id="Qjj1GsqAgw6zqFt4zkow-9" style="rounded=0;orthogonalLoop=1;jettySize=auto;html=1;entryX=0;entryY=0.5;entryDx=0;entryDy=0;entryPerimeter=0;endArrow=none;endFill=0;" edge="1" parent="1" source="Qjj1GsqAgw6zqFt4zkow-1" target="Qjj1GsqAgw6zqFt4zkow-6">
          <mxGeometry relative="1" as="geometry" />
        </mxCell>
        <mxCell id="Qjj1GsqAgw6zqFt4zkow-1" value="h1&lt;br&gt;192.168.1.10/24" style="pointerEvents=1;shadow=1;dashed=0;html=1;strokeColor=none;fillColor=#505050;labelPosition=center;verticalLabelPosition=bottom;verticalAlign=top;outlineConnect=0;align=center;shape=mxgraph.office.devices.laptop;" vertex="1" parent="1">
          <mxGeometry x="10" y="200" width="100" height="50" as="geometry" />
        </mxCell>
        <mxCell id="Qjj1GsqAgw6zqFt4zkow-2" value="h3&lt;br&gt;&lt;font color=&quot;#ff0000&quot;&gt;192.168.2.3/24&lt;/font&gt;" style="pointerEvents=1;shadow=1;dashed=0;html=1;strokeColor=#82b366;fillColor=#d5e8d4;labelPosition=center;verticalLabelPosition=bottom;verticalAlign=top;outlineConnect=0;align=center;shape=mxgraph.office.devices.laptop;sketch=0;" vertex="1" parent="1">
          <mxGeometry x="710" y="200" width="90" height="50" as="geometry" />
        </mxCell>
        <mxCell id="Qjj1GsqAgw6zqFt4zkow-3" value="h2&lt;br&gt;&lt;font color=&quot;#ff0000&quot;&gt;192.168.2.2/24&lt;/font&gt;" style="pointerEvents=1;shadow=1;dashed=0;html=1;strokeColor=#82b366;fillColor=#d5e8d4;labelPosition=center;verticalLabelPosition=bottom;verticalAlign=top;outlineConnect=0;align=center;shape=mxgraph.office.devices.laptop;" vertex="1" parent="1">
          <mxGeometry x="710" y="40" width="90" height="50" as="geometry" />
        </mxCell>
        <mxCell id="Qjj1GsqAgw6zqFt4zkow-6" value="r1" style="verticalLabelPosition=bottom;html=1;fillColor=#A153A0;strokeColor=#ffffff;verticalAlign=top;align=center;points=[[0,0.5,0],[0.125,0.25,0],[0.25,0,0],[0.5,0,0],[0.75,0,0],[0.875,0.25,0],[1,0.5,0],[0.875,0.75,0],[0.75,1,0],[0.5,1,0],[0.125,0.75,0]];pointerEvents=1;shape=mxgraph.cisco_safe.compositeIcon;bgIcon=mxgraph.cisco_safe.design.blank_device;resIcon=mxgraph.cisco_safe.design.router;shadow=1;sketch=0;" vertex="1" parent="1">
          <mxGeometry x="290" y="197.5" width="60" height="55" as="geometry" />
        </mxCell>
        <mxCell id="Qjj1GsqAgw6zqFt4zkow-11" style="edgeStyle=none;rounded=0;orthogonalLoop=1;jettySize=auto;html=1;exitX=0;exitY=0.5;exitDx=0;exitDy=0;exitPerimeter=0;entryX=1;entryY=0.5;entryDx=0;entryDy=0;entryPerimeter=0;endArrow=none;endFill=0;" edge="1" parent="1" source="Qjj1GsqAgw6zqFt4zkow-10" target="Qjj1GsqAgw6zqFt4zkow-6">
          <mxGeometry relative="1" as="geometry" />
        </mxCell>
        <mxCell id="Qjj1GsqAgw6zqFt4zkow-12" style="edgeStyle=none;rounded=0;orthogonalLoop=1;jettySize=auto;html=1;exitX=0.75;exitY=0;exitDx=0;exitDy=0;exitPerimeter=0;endArrow=none;endFill=0;" edge="1" parent="1" source="Qjj1GsqAgw6zqFt4zkow-10" target="Qjj1GsqAgw6zqFt4zkow-3">
          <mxGeometry relative="1" as="geometry" />
        </mxCell>
        <mxCell id="Qjj1GsqAgw6zqFt4zkow-13" style="edgeStyle=none;rounded=0;orthogonalLoop=1;jettySize=auto;html=1;exitX=1;exitY=0.5;exitDx=0;exitDy=0;exitPerimeter=0;endArrow=none;endFill=0;" edge="1" parent="1" source="Qjj1GsqAgw6zqFt4zkow-10" target="Qjj1GsqAgw6zqFt4zkow-2">
          <mxGeometry relative="1" as="geometry" />
        </mxCell>
        <mxCell id="Qjj1GsqAgw6zqFt4zkow-18" style="edgeStyle=none;rounded=0;orthogonalLoop=1;jettySize=auto;html=1;exitX=0.75;exitY=1;exitDx=0;exitDy=0;exitPerimeter=0;endArrow=none;endFill=0;" edge="1" parent="1" source="Qjj1GsqAgw6zqFt4zkow-10" target="Qjj1GsqAgw6zqFt4zkow-17">
          <mxGeometry relative="1" as="geometry" />
        </mxCell>
        <mxCell id="Qjj1GsqAgw6zqFt4zkow-10" value="" style="verticalLabelPosition=bottom;html=1;fillColor=#A153A0;strokeColor=#ffffff;verticalAlign=top;align=center;points=[[0,0.5,0],[0.125,0.25,0],[0.25,0,0],[0.5,0,0],[0.75,0,0],[0.875,0.25,0],[1,0.5,0],[0.875,0.75,0],[0.75,1,0],[0.5,1,0],[0.125,0.75,0]];pointerEvents=1;shape=mxgraph.cisco_safe.compositeIcon;bgIcon=mxgraph.cisco_safe.design.blank_device;resIcon=mxgraph.cisco_safe.design.access_switch_2;shadow=1;sketch=0;" vertex="1" parent="1">
          <mxGeometry x="550" y="197.5" width="60" height="55" as="geometry" />
        </mxCell>
        <mxCell id="Qjj1GsqAgw6zqFt4zkow-17" value="dhcp-server&lt;br&gt;192.168.2.13/24" style="pointerEvents=1;shadow=0;dashed=0;html=1;strokeColor=#6c8ebf;fillColor=#dae8fc;labelPosition=center;verticalLabelPosition=bottom;verticalAlign=top;outlineConnect=0;align=center;shape=mxgraph.office.devices.workstation;sketch=0;" vertex="1" parent="1">
          <mxGeometry x="720" y="330" width="93" height="86" as="geometry" />
        </mxCell>
        <mxCell id="Qjj1GsqAgw6zqFt4zkow-19" value="192.168.1.11/24" style="text;html=1;align=center;verticalAlign=middle;resizable=0;points=[];autosize=1;" vertex="1" parent="1">
          <mxGeometry x="200" y="235" width="100" height="20" as="geometry" />
        </mxCell>
        <mxCell id="Qjj1GsqAgw6zqFt4zkow-20" value="192.168.2.12/24" style="text;html=1;align=center;verticalAlign=middle;resizable=0;points=[];autosize=1;" vertex="1" parent="1">
          <mxGeometry x="340" y="235" width="100" height="20" as="geometry" />
        </mxCell>
        <mxCell id="Qjj1GsqAgw6zqFt4zkow-21" value="veth1" style="text;html=1;align=center;verticalAlign=middle;resizable=0;points=[];autosize=1;" vertex="1" parent="1">
          <mxGeometry x="260" y="202.5" width="40" height="20" as="geometry" />
        </mxCell>
        <mxCell id="Qjj1GsqAgw6zqFt4zkow-22" value="vpeer-router" style="text;html=1;align=center;verticalAlign=middle;resizable=0;points=[];autosize=1;" vertex="1" parent="1">
          <mxGeometry x="340" y="202.5" width="80" height="20" as="geometry" />
        </mxCell>
        <mxCell id="Qjj1GsqAgw6zqFt4zkow-23" value="veth-router" style="text;html=1;align=center;verticalAlign=middle;resizable=0;points=[];autosize=1;" vertex="1" parent="1">
          <mxGeometry x="490" y="202.5" width="70" height="20" as="geometry" />
        </mxCell>
        <mxCell id="Qjj1GsqAgw6zqFt4zkow-24" value="vpeer1" style="text;html=1;align=center;verticalAlign=middle;resizable=0;points=[];autosize=1;" vertex="1" parent="1">
          <mxGeometry x="110" y="200" width="50" height="20" as="geometry" />
        </mxCell>
        <mxCell id="Qjj1GsqAgw6zqFt4zkow-25" value="vpeer2" style="text;html=1;align=center;verticalAlign=middle;resizable=0;points=[];autosize=1;" vertex="1" parent="1">
          <mxGeometry x="665" y="60" width="50" height="20" as="geometry" />
        </mxCell>
        <mxCell id="Qjj1GsqAgw6zqFt4zkow-26" value="vpeer3" style="text;html=1;align=center;verticalAlign=middle;resizable=0;points=[];autosize=1;" vertex="1" parent="1">
          <mxGeometry x="665" y="200" width="50" height="20" as="geometry" />
        </mxCell>
        <mxCell id="Qjj1GsqAgw6zqFt4zkow-27" value="vpeer4" style="text;html=1;align=center;verticalAlign=middle;resizable=0;points=[];autosize=1;" vertex="1" parent="1">
          <mxGeometry x="665" y="350" width="50" height="20" as="geometry" />
        </mxCell>
        <mxCell id="Qjj1GsqAgw6zqFt4zkow-28" value="veth2" style="text;html=1;align=center;verticalAlign=middle;resizable=0;points=[];autosize=1;" vertex="1" parent="1">
          <mxGeometry x="570" y="174" width="40" height="20" as="geometry" />
        </mxCell>
        <mxCell id="Qjj1GsqAgw6zqFt4zkow-29" value="veth4" style="text;html=1;align=center;verticalAlign=middle;resizable=0;points=[];autosize=1;" vertex="1" parent="1">
          <mxGeometry x="570" y="255" width="40" height="20" as="geometry" />
        </mxCell>
        <mxCell id="Qjj1GsqAgw6zqFt4zkow-30" value="veth3" style="text;html=1;align=center;verticalAlign=middle;resizable=0;points=[];autosize=1;" vertex="1" parent="1">
          <mxGeometry x="604" y="209" width="40" height="20" as="geometry" />
        </mxCell>
      </root>
    </mxGraphModel>
  </diagram>
</mxfile>
